<svg xmlns="http://www.w3.org/2000/svg" width="160.511" height="38.962" viewBox="0 0 160.511 38.962">
  <g id="Group_332" data-name="Group 332" transform="translate(-21.489 -11.867)">
    <g id="Group_324" data-name="Group 324">
      <path id="Path_211" data-name="Path 211" d="M34.527,19.257a10.575,10.575,0,0,0-4.815,6.3,14.264,14.264,0,0,0-.595,4.165,10.169,10.169,0,0,0,.7,3.968,5.455,5.455,0,0,0,2.138,2.578,6.52,6.52,0,0,0,3.548.9,7.343,7.343,0,0,0,2.91-.529,5.333,5.333,0,0,0,2.028-1.477,6.421,6.421,0,0,0,1.19-2.182l.308-.969H34.979l1.147-5.026h13L45.206,42.509H40.181l1.5-6.833.661.706a11.948,11.948,0,0,1-2.028,3.57,7.915,7.915,0,0,1-3.019,2.2,10.7,10.7,0,0,1-4.166.75,11.513,11.513,0,0,1-5.885-1.521,11.133,11.133,0,0,1-4.188-4.342,13.59,13.59,0,0,1-1.564-6.56c0-.053,0-.107,0-.161a.065.065,0,0,1,0-.024C26.547,20.189,34.527,19.257,34.527,19.257Z" fill="#0f996d"/>
      <path id="Path_212" data-name="Path 212" d="M21.571,28.464A15.839,15.839,0,0,1,33.023,18.032s6.362-1.9,11.027,2.845l-2.12,2.371h9.755L48.716,11.867l-1.272,3.794a16.163,16.163,0,0,0-17.39-.949A15.382,15.382,0,0,0,21.571,28.464Z" fill="#1a1a1a"/>
    </g>
    <path id="Path_213" data-name="Path 213" d="M138.569,35.5c-.263.263-.526.438-.789.7a7.227,7.227,0,0,1-3.6,1.93,1.706,1.706,0,0,1-2.28-1.316,5.489,5.489,0,0,1-.263-2.368,8.713,8.713,0,0,1,.7-2.982,8.379,8.379,0,0,1,2.719-3.6,2.471,2.471,0,0,1,1.667-.614A3.357,3.357,0,0,1,138.92,28.4a18.925,18.925,0,0,1,1.14,1.666h0c.439-1.491.79-2.982,1.14-4.473a1.118,1.118,0,0,0-.087-.526,5.806,5.806,0,0,0-2.9-2.106,7.081,7.081,0,0,0-5.789.7,11.644,11.644,0,0,0-3.947,3.509,13.478,13.478,0,0,0-2.544,6.491,9.462,9.462,0,0,0,.7,5.175,6.245,6.245,0,0,0,5.614,3.771,8.239,8.239,0,0,0,4.736-1.315.665.665,0,0,0,.176-.351c.35-1.4.7-2.807,1.052-4.123a7.277,7.277,0,0,0,.351-1.315h0c.088-.088,0-.088,0,0Z" fill="#0f996d"/>
    <path id="Path_214" data-name="Path 214" d="M111.465,42.519c0-.088.088-.176.088-.263.263-1.053.526-2.018.79-3.07.7-2.72,1.491-5.439,2.192-8.246a1.84,1.84,0,0,1,.614-1.14c.7-.614,1.4-1.228,2.193-1.842a3.7,3.7,0,0,1,.877-.351,1.309,1.309,0,0,1,1.491,1.667l-.526,2.1c-.789,3.07-1.579,6.228-2.456,9.3-.175.7-.351,1.315-.526,2.017a25.632,25.632,0,0,0-.263,2.719c0,.351-.088.7-.088,1.053a5.219,5.219,0,0,0,3.684,4.122,5.417,5.417,0,0,0,2.895.088,7.746,7.746,0,0,0,4.034-1.842c.264-.175.264-.351.176-.7-.351-.964-.7-2.017-1.053-2.982,0-.088-.087-.175-.175-.351a3.071,3.071,0,0,1-.7.439,1.73,1.73,0,0,1-2.456-.614,3.493,3.493,0,0,1-.351-2.456c.263-.965.527-2.018.79-2.982.789-2.9,1.579-5.877,2.368-8.772a9.29,9.29,0,0,0,.439-2.719,4.984,4.984,0,0,0-2.369-4.123,4.033,4.033,0,0,0-1.4-.614,6.121,6.121,0,0,0-2.807.088A10.281,10.281,0,0,0,116.2,24.1l.263-1.316h-5.7c-1.755,6.491-3.421,12.982-5.175,19.56C107.781,42.519,109.623,42.519,111.465,42.519Z" fill="#0f996d"/>
    <path id="Path_215" data-name="Path 215" d="M67.959,22.871c-.351,1.4-.7,2.807-1.14,4.3H69.45c-1.315,5.175-2.631,10.262-4.034,15.35h5.7c1.491-5.088,2.807-10.263,4.123-15.35h3.6c.351-1.4.789-2.807,1.14-4.3h-3.6c.7-2.9,1.491-5.614,2.193-8.508h-5.7c-.7,2.806-1.491,5.7-2.193,8.508Z" fill="#0f996d"/>
    <path id="Path_216" data-name="Path 216" d="M76.643,42.519h5.7c2.544-9.824,5.176-19.648,7.719-29.472H84.274Z" fill="#0f996d"/>
    <path id="Path_217" data-name="Path 217" d="M152.515,36.291h0c0,.088.088.088,0,0C152.6,36.379,152.515,36.379,152.515,36.291Z" fill="#2c54bc"/>
    <path id="Path_218" data-name="Path 218" d="M100.238,24.537c.175-.614.351-1.14.526-1.666h5.614c-.175.7-.351,1.315-.526,1.929-.877,3.246-1.667,6.579-2.544,9.824-.175.79-.439,1.492-.614,2.281-.175.7.175,1.228.877,1.14.263,0,.614-.087.877-.087a.66.66,0,0,0,.351-.088c-.175.526-.263,1.052-.438,1.491-.176.614-.351,1.228-.527,1.754a.662.662,0,0,1-.175.351,6.725,6.725,0,0,1-4.035,1.316,3.962,3.962,0,0,1-2.982-1.491,1.2,1.2,0,0,1-.263-.351c-.351.263-.7.438-.965.614a5.694,5.694,0,0,1-3.333.965,4.781,4.781,0,0,1-4.386-2.983,9.81,9.81,0,0,1-.7-5A15.591,15.591,0,0,1,89.8,26.73a10.348,10.348,0,0,1,4.386-3.859,4.75,4.75,0,0,1,4.473,0A9.4,9.4,0,0,1,100.238,24.537ZM92.431,35.151c.088.526.088.965.176,1.491.263,1.4,1.228,1.842,2.368,1.052a10.589,10.589,0,0,0,1.053-.964,11.244,11.244,0,0,0,2.017-3.772,10.032,10.032,0,0,0,.614-2.807,5.8,5.8,0,0,0-.263-2.1,1.372,1.372,0,0,0-1.754-.877,2.963,2.963,0,0,0-1.228.789A10.463,10.463,0,0,0,92.431,35.151Z" fill="#0f996d"/>
    <path id="Path_219" data-name="Path 219" d="M66.03,30.59a12.579,12.579,0,0,1-1.93,6.666A12.444,12.444,0,0,1,59.451,41.9a7.133,7.133,0,0,1-5.35.877,6.277,6.277,0,0,1-4.737-4.561,12.166,12.166,0,0,1,.614-8.245,13.669,13.669,0,0,1,2.544-4.035,10.043,10.043,0,0,1,5.613-3.158A6.531,6.531,0,0,1,65.5,27.607l.263,1.316A10.92,10.92,0,0,1,66.03,30.59Zm-5.088-.351a5.652,5.652,0,0,0-.351-2.281,1.356,1.356,0,0,0-1.491-.789,2.256,2.256,0,0,0-.7.263,5.316,5.316,0,0,0-2.018,1.93,12.536,12.536,0,0,0-1.93,4.912,5.717,5.717,0,0,0,.088,2.719,1.437,1.437,0,0,0,2.281.965,4.231,4.231,0,0,0,1.4-1.053A10.917,10.917,0,0,0,60.942,30.239Z" fill="#0f996d"/>
    <path id="Path_220" data-name="Path 220" d="M152.515,36.466a2.591,2.591,0,0,0-.175.79c-.351,1.4-.7,2.807-1.053,4.122a1.008,1.008,0,0,1-.438.614,6.9,6.9,0,0,1-5.877.439,6.317,6.317,0,0,1-2.368-1.316,6.412,6.412,0,0,1-2.105-3.333,11.961,11.961,0,0,1,.351-7.017,12.692,12.692,0,0,1,5.613-6.842,7.833,7.833,0,0,1,4.649-1.14,7.242,7.242,0,0,1,3.772,1.316,4.285,4.285,0,0,1,1.666,2.982,6.851,6.851,0,0,1-1.929,5.965,9.507,9.507,0,0,1-5,2.982,8.291,8.291,0,0,1-3.6,0,.66.66,0,0,1-.351-.088,2.476,2.476,0,0,0,1.754,2.456,4.381,4.381,0,0,0,1.491-.088,6.633,6.633,0,0,0,3.246-1.578c.087-.088.263-.176.35-.264Zm-6.578-4.122a.3.3,0,0,1,.175.088,6.667,6.667,0,0,0,4.123-.439,3.765,3.765,0,0,0,1.842-2.017,2.047,2.047,0,0,0-.526-2.281,1.571,1.571,0,0,0-2.018-.088c-.088,0-.088.088-.175.088a6.4,6.4,0,0,0-1.755,1.667A8.24,8.24,0,0,0,145.937,32.344Z" fill="#0f996d"/>
    <path id="Path_221" data-name="Path 221" d="M67.959,22.871h2.632c.7-2.807,1.491-5.7,2.193-8.508h5.7c-.7,2.806-1.4,5.613-2.193,8.508h3.6c-.438,1.491-.789,2.807-1.14,4.3h-3.6c-1.228,5.087-2.544,10.262-3.947,15.35H65.5c1.316-5.088,2.632-10.175,4.035-15.35H66.907C67.258,25.678,67.608,24.362,67.959,22.871Z" fill="#0f996d"/>
    <path id="Path_222" data-name="Path 222" d="M76.643,42.519c2.544-9.824,5.175-19.648,7.719-29.472h5.789c-2.631,9.824-5.263,19.648-7.807,29.472Z" fill="#0f996d"/>
    <path id="Path_223" data-name="Path 223" d="M138.569,35.5h0c0-.088.088-.088,0,0Z" fill="#2c54bc"/>
    <path id="Path_224" data-name="Path 224" d="M152.515,36.291c0,.088.088.088,0,0,.088.088,0,.088,0,0Z" fill="#2c54bc"/>
    <path id="Path_225" data-name="Path 225" d="M161.813,26.028l.088-.087A.086.086,0,0,1,161.813,26.028Z" fill="#2c54bc"/>
    <g id="Group_331" data-name="Group 331">
      <g id="Group_330" data-name="Group 330">
        <g id="Group_329" data-name="Group 329">
          <g id="Group_326" data-name="Group 326">
            <g id="Group_325" data-name="Group 325">
              <path id="Path_226" data-name="Path 226" d="M173.565,40.1a2.792,2.792,0,0,1-2.853,2.8,2.774,2.774,0,1,1,.054-5.544A2.672,2.672,0,0,1,173.565,40.1Zm-.7-.053a2.156,2.156,0,0,0-4.306-.216,2.231,2.231,0,0,0,.754,1.884,2.337,2.337,0,0,0,2.207.377A2.061,2.061,0,0,0,172.865,40.043Z" fill="#1a1a1a"/>
            </g>
          </g>
          <g id="Group_328" data-name="Group 328">
            <g id="Group_327" data-name="Group 327">
              <path id="Path_227" data-name="Path 227" d="M170.228,41.55h-.592v-2.8a3.484,3.484,0,0,1,1.668,0,.666.666,0,0,1,.431,1.076,2.91,2.91,0,0,1-.431.323c.592.269.485.861.7,1.4h-.592c-.054,0-.108-.108-.162-.162-.053-.161-.107-.377-.161-.538-.108-.377-.215-.431-.592-.431h-.323A7.933,7.933,0,0,1,170.228,41.55Zm.107-1.561c.216-.054.431-.054.646-.108a.4.4,0,0,0,.269-.377.341.341,0,0,0-.269-.323,1.332,1.332,0,0,0-.646,0Z" fill="#1a1a1a"/>
            </g>
          </g>
        </g>
      </g>
    </g>
    <path id="Path_228" data-name="Path 228" d="M172.2,37.495l9.8-5.358-9.338-7.5L173.657,29a10.42,10.42,0,0,0-5.97.153s-5.052,1.684-7.655,5.511l-2.449,8.879h5.97l1.378-4.746s2.3-4.592,5.817-5.358a4.58,4.58,0,0,1,2.756.613Z" fill="#1a1a1a"/>
    <path id="Path_229" data-name="Path 229" d="M158.272,23.028l-.919,5.052h4.287l-.766,3.215a17.807,17.807,0,0,1,6.784-3.788l.023-.006,1.08-4.473H158.272Z" fill="#0f996d"/>
  </g>
</svg>
