<svg xmlns="http://www.w3.org/2000/svg" width="30.196" height="31.039" viewBox="0 0 30.196 31.039">
  <path id="Path_211" data-name="Path 211" d="M34.527,19.257a10.575,10.575,0,0,0-4.815,6.3,14.264,14.264,0,0,0-.595,4.165,10.169,10.169,0,0,0,.7,3.968,5.455,5.455,0,0,0,2.138,2.578,6.52,6.52,0,0,0,3.548.9,7.343,7.343,0,0,0,2.91-.529,5.333,5.333,0,0,0,2.028-1.477,6.421,6.421,0,0,0,1.19-2.182l.308-.969H34.979l1.147-5.026h13L45.206,42.509H40.181l1.5-6.833.661.706a11.948,11.948,0,0,1-2.028,3.57,7.915,7.915,0,0,1-3.019,2.2,10.7,10.7,0,0,1-4.166.75,11.513,11.513,0,0,1-5.885-1.521,11.133,11.133,0,0,1-4.188-4.342,13.59,13.59,0,0,1-1.564-6.56c0-.053,0-.107,0-.161a.065.065,0,0,1,0-.024C26.547,20.189,34.527,19.257,34.527,19.257Z" transform="translate(-21.489 -11.867)" fill="#0f996d"/>
  <path id="Path_212" data-name="Path 212" d="M21.571,28.464A15.839,15.839,0,0,1,33.023,18.032s6.362-1.9,11.027,2.845l-2.12,2.371h9.755L48.716,11.867l-1.272,3.794a16.163,16.163,0,0,0-17.39-.949A15.382,15.382,0,0,0,21.571,28.464Z" transform="translate(-21.489 -11.867)" fill="#1a1a1a"/>
</svg>
